<?xml version="1.0" encoding="utf-8"?>
<!-- Generator: Adobe Illustrator 25.0.1, SVG Export Plug-In . SVG Version: 6.00 Build 0)  -->
<svg version="1.1" id="body_225758503_6801" xmlns="http://www.w3.org/2000/svg" xmlns:xlink="http://www.w3.org/1999/xlink"
	 x="0px" y="0px" viewBox="0 0 1858.9 1893.1" style="enable-background:new 0 0 1858.9 1893.1;" xml:space="preserve">
<style type="text/css">
	.st0{fill:none;stroke:#FFFFFF;stroke-width:1.5;stroke-linecap:round;stroke-linejoin:round;stroke-miterlimit:382.0032;}
</style>
<g transform="matrix(95.500797 0 0 -95.500797 -528.80269 2284.7699)">
	<g>
		<path class="st0" d="M15.3,17l-4.4-4.4"/>
		<path class="st0" d="M10.9,12.5l-0.1-0.1l-0.1-0.2l-0.1-0.2l-0.1-0.2l-0.1-0.2l-0.1-0.2l-0.1-0.2l-0.1-0.2l0-0.2l0-0.2l0-0.2
			l0-0.2l0-0.2l0-0.2l0-0.2l0.1-0.2l0.1-0.2l0.1-0.2l0.1-0.2L10.5,9l0.1-0.2l0.2-0.2"/>
		<path class="st0" d="M11.3,8.1l-3.9,3.9"/>
		<path class="st0" d="M7.4,16l-0.1-0.1l-0.1-0.2l-0.1-0.2L7,15.4l-0.1-0.2L6.8,15l-0.1-0.2l-0.1-0.2l0-0.2l0-0.2l0-0.2l0-0.2l0-0.2
			l0-0.2l0-0.2l0.1-0.2l0.1-0.2l0.1-0.2L7,12.6l0.1-0.2l0.1-0.2l0.2-0.2"/>
		<path class="st0" d="M7.4,16l2,2"/>
		<path class="st0" d="M15.3,11.1l4.4,4.4"/>
		<path class="st0" d="M19.7,19.4l0.1-0.1l0.1-0.2l0.1-0.2l0.1-0.2l0.1-0.2l0.1-0.2l0.1-0.2l0.1-0.2l0-0.2l0-0.2l0-0.2l0-0.2l0-0.2
			l0-0.2l0-0.2l-0.1-0.2l-0.1-0.2l-0.1-0.2L20.1,16L20,15.9l-0.1-0.2l-0.2-0.2"/>
		<path class="st0" d="M11.3,8.1l2-2"/>
		<path class="st0" d="M13.3,6.2L13.4,6l0.2-0.1l0.2-0.1l0.2-0.1l0.2-0.1l0.2-0.1l0.2-0.1l0.2-0.1l0.2,0l0.2,0l0.2,0l0.2,0l0.2,0
			l0.2,0l0.2,0l0.2,0.1l0.2,0.1l0.2,0.1l0.2,0.1l0.2,0.1L17,6l0.2,0.2"/>
		<path class="st0" d="M17.2,6.2l3.9,3.9"/>
		<path class="st0" d="M21.2,10.1l2,2"/>
		<path class="st0" d="M23.1,16l0.1-0.1l0.1-0.2l0.1-0.2l0.1-0.2l0.1-0.2l0.1-0.2l0.1-0.2l0.1-0.2l0-0.2l0-0.2l0-0.2l0-0.2l0-0.2
			l0-0.2l0-0.2l-0.1-0.2l-0.1-0.2l-0.1-0.2l-0.1-0.2l-0.1-0.2l-0.1-0.2l-0.2-0.2"/>
		<path class="st0" d="M23.1,16l-3.9,3.9"/>
		<path class="st0" d="M19.2,19.9l-2,2"/>
		<path class="st0" d="M17.2,21.9L17.1,22l-0.2,0.1l-0.2,0.1l-0.2,0.1l-0.2,0.1l-0.2,0.1l-0.2,0.1l-0.2,0.1l-0.2,0l-0.2,0l-0.2,0
			l-0.2,0l-0.2,0l-0.2,0l-0.2,0l-0.2-0.1l-0.2-0.1L14,22.4l-0.2-0.1l-0.2-0.1l-0.2-0.1l-0.2-0.2"/>
		<path class="st0" d="M13.3,21.9l-3.9-3.9"/>
		<path class="st0" d="M13.8,18.4l-0.1,0.1l-0.2,0.1l-0.2,0.1l-0.2,0.1L13,19l-0.2,0.1l-0.2,0.1l-0.2,0.1l-0.2,0l-0.2,0l-0.2,0
			l-0.2,0l-0.2,0l-0.2,0l-0.2,0l-0.2-0.1L10.8,19l-0.2-0.1l-0.2-0.1l-0.2-0.1l-0.2-0.1l-0.2-0.2"/>
		<path class="st0" d="M13.8,18.4l4.4-4.4"/>
		<path class="st0" d="M12.3,14l4.4-4.4"/>
		<path class="st0" d="M16.7,9.6l0.1-0.1L17,9.3l0.2-0.1l0.2-0.1L17.5,9L17.7,9l0.2-0.1l0.2-0.1l0.2,0l0.2,0l0.2,0l0.2,0l0.2,0
			l0.2,0l0.2,0l0.2,0.1L19.8,9L20,9.1l0.2,0.1l0.2,0.1l0.2,0.1l0.2,0.2"/>
	</g>
</g>
</svg>
